<?xml version="1.0" encoding="UTF-8" standalone="no"?>
<!-- Generator: Adobe Illustrator 19.2.0, SVG Export Plug-In . SVG Version: 6.00 Build 0)  -->
<svg xmlns:dc="http://purl.org/dc/elements/1.1/" xmlns:cc="http://creativecommons.org/ns#" xmlns:rdf="http://www.w3.org/1999/02/22-rdf-syntax-ns#" xmlns:svg="http://www.w3.org/2000/svg" xmlns="http://www.w3.org/2000/svg" xmlns:sodipodi="http://sodipodi.sourceforge.net/DTD/sodipodi-0.dtd" xmlns:inkscape="http://www.inkscape.org/namespaces/inkscape" version="1.1" id="Layer_1" x="0px" y="0px" viewBox="0 0 1524.2 291.71816" xml:space="preserve" sodipodi:docname="falatozzhu_logo_szines_v22.svg" width="1524.2" height="291.71817" inkscape:version="0.92.3 (2405546, 2018-03-11)"><metadata id="metadata3915"><rdf:RDF><cc:Work rdf:about=""><dc:format>image/svg+xml</dc:format><dc:type rdf:resource="http://purl.org/dc/dcmitype/StillImage"/><dc:title/></cc:Work></rdf:RDF></metadata><defs id="defs3913"/><sodipodi:namedview pagecolor="#ffffff" bordercolor="#666666" borderopacity="1" objecttolerance="10" gridtolerance="10" guidetolerance="10" inkscape:pageopacity="0" inkscape:pageshadow="2" inkscape:window-width="1920" inkscape:window-height="997" id="namedview3911" showgrid="false" fit-margin-top="0" fit-margin-left="0" fit-margin-right="0" fit-margin-bottom="0" inkscape:zoom="0.92191173" inkscape:cx="761.85" inkscape:cy="146.19999" inkscape:window-x="1912" inkscape:window-y="-8" inkscape:window-maximized="1" inkscape:current-layer="Layer_1"/>
<style type="text/css" id="style3868">
	.st0{fill:#0B49BA;}
	.st1{fill:#FD7E14;}
</style>
<g id="g3884" transform="translate(-195.4,-195.68183)">
	<g id="g3878">
		<g id="g3872">
			<path class="st0" d="m 353.9,465.2 c 1.2,-14 3.1,-71.9 3.3,-125.4 -4.4,-54.4 -2.7,-124.8 -2.1,-134.4 0.9,-14.5 3.6,-13.1 16.2,6.4 7.1,11 17.4,32.8 19.2,45.8 3.6,25.3 0.4,55.5 -13.8,80.7 -0.4,0.7 -0.4,1.1 -0.6,1.9 -3.4,16 10.5,98.9 13.1,125.1 0.7,6.8 -1.8,22.1 -17.8,22.1 -15.4,0 -18,-15.4 -17.5,-22.2 z" id="path3870" inkscape:connector-curvature="0" style="fill:#0b49ba"/>
		</g>
		<g id="g3876">
			<path class="st0" d="m 339,283.4 c 0,-0.7 -0.1,-1.3 -0.2,-2 0,0 -6.6,-85 -12.1,-85 -4.9,0 -5.2,55.5 -5.2,55.5 v 0 6.9 c 0,2.5 -1.9,4.5 -4.2,4.5 -2,0 -3.6,-1.5 -4.1,-3.5 0,-0.2 -0.7,-63.4 -6.9,-63.4 -5.9,0 -7,63.1 -7,63.3 -0.4,2.1 -2.1,3.6 -4.1,3.6 -2.3,0 -4.2,-2 -4.2,-4.5 v -4.3 c 0,-0.2 0,-0.3 0,-0.5 0,0 0,-57.6 -5.4,-57.6 -6,0 -12,85.2 -12,85.2 -0.1,0.6 -0.2,1.2 -0.2,1.7 0,14.6 10.7,26.9 23.8,30.9 l -7.6,150.9 c 0,0 -1.1,22.1 16.5,22.1 17.3,0 16.8,-22.1 16.8,-22.1 L 314.3,314.2 C 327.6,310.3 339,298 339,283.4 Z" id="path3874" inkscape:connector-curvature="0" style="fill:#0b49ba"/>
		</g>
	</g>
	<path class="st0" d="m 475.4,345.1 -0.1,-3.3 V 341 c -0.1,-1.7 -0.2,-3.5 -0.4,-5.4 -0.4,-4.4 -0.9,-8.5 -1.7,-12.5 -1.4,-7.9 -3.5,-15.8 -6.3,-23.4 -1.3,-3.7 -2.8,-7.3 -4.3,-10.7 -0.9,-2.1 -2,-4.3 -3.2,-6.6 -9.7,-20.8 -23.6,-38.3 -40.4,-50.8 l -2.6,-1.9 v 10.5 l 0.6,0.5 c 14.8,11.9 27.1,28.2 35.6,47 0.7,1.6 1.2,3.2 1.7,4.6 1.2,3.3 2.3,6.7 3.2,10.3 2,7.3 3.3,14.7 4.1,22.1 0.4,3.6 0.6,7.4 0.6,11.4 0,1.6 0,3.4 -0.1,5.1 l -0.2,3.5 c 0,0.9 -0.1,1.8 -0.2,2.8 -0.6,7.3 -2,14.8 -4,22.4 -2.1,7.4 -4.6,14.3 -7.6,20.6 -2.8,6.1 -6.2,12.1 -10,17.8 -3.4,5.1 -7.1,9.9 -11.2,14.3 -2.8,3.1 -5.8,6.1 -8.9,8.9 l -0.6,0.7 v 0.8 c 0.3,9.4 0.3,17.8 -0.2,25.1 l -0.2,3.6 3.7,-2.9 c 3.9,-3.2 7.2,-6.2 10.3,-9.4 4.2,-4.2 8.1,-8.7 11.8,-13.5 4.2,-5.5 8.1,-11.4 11.5,-17.6 3.8,-6.8 7.1,-13.9 9.8,-21.1 2.8,-7.4 5,-15.4 6.7,-23.8 1.6,-8.6 2.4,-17.2 2.5,-25.3 0.1,-0.9 0.1,-2 0.1,-3 z" id="path3880" inkscape:connector-curvature="0" style="fill:#0b49ba"/>
	<path class="st0" d="m 208.8,361.1 c 0,-0.5 0,-0.9 -0.1,-1.4 0,-0.5 0,-1.1 -0.1,-1.6 0,-0.5 0,-0.9 -0.1,-1.4 -0.1,-1.4 -0.1,-2.7 -0.1,-4.1 l 0.1,-5.7 0.6,-8.2 0.4,-2.8 c 0.1,-0.7 0.2,-1.4 0.3,-2.1 0.2,-1.2 0.3,-2.3 0.5,-3.4 l 1.1,-5.4 c 0.1,-0.3 0.1,-0.7 0.2,-1 0.1,-0.5 0.2,-1.1 0.4,-1.6 l 0.7,-2.7 c 1.9,-7.6 4.7,-14.6 7,-19.9 0.4,-0.7 0.7,-1.5 1.1,-2.2 1.1,-2.4 2.2,-4.6 3.5,-6.8 0.3,-0.5 0.6,-1.1 0.9,-1.6 0.5,-0.9 1,-1.8 1.5,-2.6 l 2.6,-4 c 0.2,-0.2 0.3,-0.5 0.5,-0.7 0.3,-0.4 0.5,-0.8 0.8,-1.2 l 4,-5.5 c 0.6,-0.7 1.1,-1.4 1.7,-2.1 0.3,-0.4 0.7,-0.8 1,-1.2 0.3,-0.4 0.7,-0.8 1,-1.2 0.6,-0.7 1.1,-1.3 1.6,-1.9 l 2.7,-2.9 c 0.3,-0.3 0.6,-0.6 0.9,-1 0.3,-0.3 0.5,-0.6 0.8,-0.9 l 0.5,-0.5 v -0.6 c 0,-9.5 0.3,-18.5 1,-26.7 l 0.3,-3.9 -2.9,2.5 c -0.9,0.8 -1.9,1.6 -2.9,2.5 l -5.1,5 c -1.2,1.2 -2.4,2.6 -3.7,4 -0.6,0.7 -1.2,1.4 -1.8,2 -0.7,0.8 -1.4,1.6 -2,2.4 -0.3,0.4 -0.6,0.7 -0.9,1.1 l -2.9,3.6 c -0.7,0.8 -1.3,1.7 -1.9,2.6 -0.3,0.5 -0.6,0.9 -1,1.4 -0.3,0.5 -0.6,0.9 -0.9,1.4 -0.6,0.9 -1.3,1.8 -1.9,2.8 l -4,6.6 c -0.3,0.5 -0.6,1.1 -0.9,1.6 -0.1,0.3 -0.3,0.5 -0.4,0.8 l -2.5,4.8 c -0.6,1.1 -1.1,2.2 -1.6,3.3 -0.3,0.6 -0.5,1.2 -0.8,1.7 -1.3,2.7 -2.4,5.6 -3.5,8.4 -0.3,0.7 -0.6,1.5 -0.9,2.3 -3.1,9.1 -5,16.2 -6.1,23.1 l -0.5,3 c -0.1,0.7 -0.2,1.4 -0.3,2.1 0,0.3 -0.1,0.7 -0.1,1.1 l -0.7,6.1 c -0.1,1.4 -0.2,2.8 -0.2,4.1 l -0.3,5.1 0.1,9.4 0.4,5.8 c 0.1,1.5 0.3,3.2 0.5,4.7 l 0.2,1.4 c 0.1,0.5 0.1,1.1 0.2,1.6 0.2,1.5 0.4,3 0.7,4.5 l 1.1,5.9 1.4,5.7 c 0.4,1.6 0.9,3.2 1.3,4.8 l 1.3,4.1 c 0.1,0.3 0.2,0.6 0.3,1 l 2.4,6.6 c 0.4,1.1 0.9,2.2 1.4,3.3 0.3,0.6 0.5,1.2 0.8,1.7 l 1.1,2.5 2,4 c 0.5,1 1,2 1.6,3.1 l 2.9,5.1 c 0.3,0.5 0.5,1 0.9,1.5 l 3.9,6.1 2.7,3.7 c 3.9,5.4 7.9,9.7 10.5,12.5 0.8,0.9 1.6,1.7 2.4,2.4 l 2.5,2.4 c 0.4,0.5 0.9,0.9 1.3,1.3 3.1,3 6.4,5.9 9.8,8.6 l 0.8,0.5 c 0.3,0.2 1,0.7 1.2,0.8 l 1.9,1.1 c 0,0 -0.5,-2.8 -0.1,-8.1 0,-0.4 0,-0.8 0.1,-1.2 v -0.8 l -0.6,-0.5 C 227,422.3 212.1,394 208.8,361.1 Z" id="path3882" inkscape:connector-curvature="0" style="fill:#0b49ba"/>
</g>
<g id="g3908" transform="translate(-195.4,-195.68183)">
	<path class="st1" d="m 573.5,405.5 c 0.6,-9.7 0.6,-48.8 0.6,-53.1 v -24.3 c 0,-3 -0.4,-47.1 -0.6,-52.5 17.2,0 68.6,-1.9 90.5,-2.6 l 0.9,31.4 -43,0.9 v 26.4 c 4.3,0 17.4,-0.9 39.3,-1.7 l 0.4,30.3 -39.8,-0.4 v 14.6 c 0,3 0.2,28.4 0.2,31 z" id="path3886" inkscape:connector-curvature="0" style="fill:#fd7e14"/>
	<path class="st1" d="m 674.5,395.7 c 4.2,-6.7 42.3,-69 56.7,-89.3 h 3 c 17.3,24 54.5,80.1 60.4,87.7 l -28.7,15.8 c -4.2,-6.4 -11.4,-18.4 -12.5,-20 l -41.7,2 c -0.8,1.2 -5.9,11.9 -9.1,18.1 z m 69.3,-25.2 c -3.9,-7.6 -9.1,-16.4 -11.7,-21.9 -3.3,6.4 -8.1,15.6 -11.7,22.9 z" id="path3888" inkscape:connector-curvature="0" style="fill:#fd7e14"/>
	<path class="st1" d="m 843.7,311.2 c -0.2,3.1 -0.8,30.4 -0.8,47.1 v 23.3 c 3.4,0 20.1,0 31.5,-0.6 l 0.2,25.9 c -4.2,0 -53.5,-1.4 -65.7,-1.4 0.3,-7 0.3,-35.4 0.3,-38.6 v -17.6 c 0,-2.2 -0.3,-35.4 -0.5,-38.1 z" id="path3890" inkscape:connector-curvature="0" style="fill:#fd7e14"/>
	<path class="st1" d="m 891.6,395.7 c 4.2,-6.7 42.3,-69 56.7,-89.3 h 3 c 17.3,24 54.5,80.1 60.4,87.7 L 983,409.9 c -4.2,-6.4 -11.4,-18.4 -12.5,-20 l -41.7,2 c -0.8,1.2 -5.9,11.9 -9.1,18.1 z m 69.3,-25.2 c -3.9,-7.6 -9.1,-16.4 -11.7,-21.9 -3.3,6.4 -8.1,15.6 -11.7,22.9 z" id="path3892" inkscape:connector-curvature="0" style="fill:#fd7e14"/>
	<path class="st1" d="m 1035.7,405.5 c 0.2,-3.4 0.3,-22.3 0.3,-36.7 v -33.6 c -5.8,0 -26.1,0.6 -30.4,0.8 v -24.5 c 6.4,0.6 40.1,1.1 41.7,1.1 h 12.3 c 2.7,0 33.7,-0.5 40.6,-1.1 V 336 c -2.7,-0.2 -28.9,-0.8 -30.3,-0.8 v 35.6 c 0,13.7 0.2,32 0.5,34.7 z" id="path3894" inkscape:connector-curvature="0" style="fill:#fd7e14"/>
	<path class="st1" d="m 1100.2,362.3 c 0,-25.6 19.8,-53.1 61.8,-53.1 34,0 54.9,17.5 54.9,46.7 0,20 -14,51.8 -61.8,51.8 -38.1,0 -54.9,-24.2 -54.9,-45.4 z m 80.4,-5.5 c 0,-16.9 -7.5,-26.1 -20.4,-26.1 -15.3,0 -23.6,13.6 -23.6,29.5 0,17.5 9.2,25.9 20.1,25.9 14.5,0 23.9,-9.8 23.9,-29.3 z" id="path3896" inkscape:connector-curvature="0" style="fill:#fd7e14"/>
	<path class="st1" d="m 1233.8,308.7 c 6.4,0.8 79,3 85.7,3.4 l 1.1,1.7 c -3.6,6.1 -43.2,67.3 -45,69 8.3,0 38.6,-0.5 42.6,-0.9 l -0.6,25 c -3.6,0 -83,-1.4 -89.3,-1.4 l -1.1,-1.9 c 6.6,-9.4 42.8,-65.7 45.9,-69.6 -4.8,0 -35.7,-1.2 -39.8,-1.2 z" id="path3898" inkscape:connector-curvature="0" style="fill:#fd7e14"/>
	<path class="st1" d="m 1336.8,308.7 c 6.4,0.8 79,3 85.7,3.4 l 1.1,1.7 c -3.6,6.1 -43.2,67.3 -45,69 8.3,0 38.6,-0.5 42.6,-0.9 l -0.6,25 c -3.6,0 -83,-1.4 -89.3,-1.4 l -1.1,-1.9 c 6.6,-9.4 42.8,-65.7 45.9,-69.6 -4.8,0 -35.7,-1.2 -39.8,-1.2 z" id="path3900" inkscape:connector-curvature="0" style="fill:#fd7e14"/>
	<path class="st1" d="m 1440.3,381.3 h 25.9 v 24.2 h -25.9 z" id="path3902" inkscape:connector-curvature="0" style="fill:#fd7e14"/>
	<path class="st1" d="m 1492.1,405.5 c 0.2,-5.8 0.3,-36.8 0.3,-40.3 v -14.4 c 0,-2.3 -0.3,-36.4 -0.6,-39.6 h 35.1 c -0.3,2.5 -0.8,28.1 -0.8,30.4 v 4.7 l 34.2,-2.5 v -5 c 0,-2.2 -0.3,-24.7 -0.6,-27.6 h 35 c -0.2,3.3 -0.6,40.4 -0.6,43.5 V 368 c 0,1.7 0.3,35 0.6,37.5 h -35 c 0.2,-4.5 0.6,-26.1 0.6,-28.6 v -9.2 l -34.2,2.5 v 3.9 c 0,6.1 0.5,28.3 0.6,31.4 z" id="path3904" inkscape:connector-curvature="0" style="fill:#fd7e14"/>
	<path class="st1" d="m 1653,344 c 0,21.2 0.9,30.3 6.4,36.2 3,3.1 6.6,4.4 10.9,4.4 5,0 8.9,-2 11.5,-5.8 3.9,-5.5 4.1,-10.5 4.1,-40.6 v -5 c 0,-9.2 -0.6,-18.4 -0.8,-23.3 h 34.3 c 0,3 0.2,13 0.2,23.4 v 6.2 c 0,25.4 -1.7,40.9 -12.3,53.1 -8.6,9.8 -23.1,15 -38.9,15 -11.5,0 -29.7,-1.7 -40.3,-16.7 -6.9,-9.7 -9.5,-19.5 -9.5,-51.7 V 332 c 0,-6.1 0.2,-17.2 0.2,-20.1 h 35 c -0.5,3.4 -0.8,10.9 -0.8,23.1 z" id="path3906" inkscape:connector-curvature="0" style="fill:#fd7e14"/>
</g>
</svg>